<?xml version="1.0" encoding="UTF-8" standalone="no"?>
<svg
   xmlns:dc="http://purl.org/dc/elements/1.1/"
   xmlns:cc="http://creativecommons.org/ns#"
   xmlns:rdf="http://www.w3.org/1999/02/22-rdf-syntax-ns#"
   xmlns:svg="http://www.w3.org/2000/svg"
   xmlns="http://www.w3.org/2000/svg"
   xmlns:sodipodi="http://sodipodi.sourceforge.net/DTD/sodipodi-0.dtd"
   xmlns:inkscape="http://www.inkscape.org/namespaces/inkscape"
   width="120mm"
   height="40mm"
   viewBox="0 0 120 39.999999"
   version="1.1"
   id="svg853"
   inkscape:version="1.0 (4035a4fb49, 2020-05-01)"
   sodipodi:docname="redditarchiver.svg">
  <defs
     id="defs847">
    <rect
       x="72.430046"
       y="39.422256"
       width="83.588547"
       height="16.102989"
       id="rect915" />
    <rect
       x="72.430046"
       y="39.422256"
       width="83.588547"
       height="16.102989"
       id="rect1499" />
  </defs>
  <sodipodi:namedview
     id="base"
     pagecolor="#ffffff"
     bordercolor="#000000"
     borderopacity="1"
     inkscape:pageopacity="0"
     inkscape:pageshadow="2"
     inkscape:zoom="2.8"
     inkscape:cx="171.56423"
     inkscape:cy="117.77136"
     inkscape:document-units="mm"
     inkscape:current-layer="layer1"
     inkscape:document-rotation="0"
     showgrid="false"
     units="mm"
     inkscape:pagecheckerboard="true"
     inkscape:window-width="2560"
     inkscape:window-height="1387"
     inkscape:window-x="1912"
     inkscape:window-y="-8"
     inkscape:window-maximized="1" />
  <metadata
     id="metadata850">
    <rdf:RDF>
      <cc:Work
         rdf:about="">
        <dc:format>image/svg+xml</dc:format>
        <dc:type
           rdf:resource="http://purl.org/dc/dcmitype/StillImage" />
        <dc:title></dc:title>
      </cc:Work>
    </rdf:RDF>
  </metadata>
  <g
     inkscape:label="Calque 1"
     inkscape:groupmode="layer"
     id="layer1">
    <rect
       y="2.9446042"
       x="10.901258"
       height="15"
       width="13"
       id="rect904"
       style="fill:#959595;fill-opacity:1;stroke:none;stroke-width:2.68719" />
    <path
       transform="matrix(1.1814438,0,0,1.0178859,-43.382093,-28.72775)"
       inkscape:transform-center-y="3.6726768"
       inkscape:transform-center-x="-0.077725636"
       d="M 64.144688,43.36448 51.250988,65.241216 38.752029,43.136576 Z"
       inkscape:randomized="0"
       inkscape:rounded="0"
       inkscape:flatsided="true"
       sodipodi:arg2="0.53257374"
       sodipodi:arg1="-0.51462382"
       sodipodi:r2="7.3305244"
       sodipodi:r1="14.661049"
       sodipodi:cy="50.580757"
       sodipodi:cx="51.382568"
       sodipodi:sides="3"
       id="path906"
       style="fill:#959595;fill-opacity:1;stroke:none;stroke-width:4.99999"
       sodipodi:type="star" />
    <path
       id="path848"
       style="clip-rule:evenodd;fill:#ffffff;fill-rule:nonzero;stroke-width:0.264583;stroke-linejoin:round;stroke-miterlimit:1.41421"
       d="m 25.207096,21.43509 c 0,-0.965202 -0.780521,-1.7317 -1.731698,-1.7317 -0.468312,0 -0.894292,0.184415 -1.2065,0.4826 -1.192212,-0.851693 -2.824692,-1.405202 -4.641585,-1.47611 l 0.794808,-3.718983 2.583392,0.553508 c 0.02858,0.652992 0.567795,1.178189 1.235075,1.178189 0.681302,0 1.23481,-0.553508 1.23481,-1.235075 0,-0.681302 -0.553508,-1.23481 -1.23481,-1.23481 -0.4826,0 -0.908579,0.283898 -1.107282,0.69559 l -2.881312,-0.610394 c -0.0852,-0.01429 -0.170392,0 -0.227277,0.0426 -0.07091,0.0426 -0.113506,0.113506 -0.127529,0.198702 l -0.880269,4.144698 c -1.845204,0.05688 -3.505994,0.610394 -4.712494,1.476375 -0.312208,-0.298186 -0.738187,-0.4826 -1.2065,-0.4826 -0.9652,0 -1.7316985,0.780521 -1.7316985,1.7317 0,0.70961 0.425715,1.30572 1.0220865,1.57559 -0.02858,0.17013 -0.0426,0.34052 -0.0426,0.5252 0,2.66832 3.108589,4.84029 6.941079,4.84029 3.83249,0 6.941079,-2.15768 6.941079,-4.84029 0,-0.17039 -0.01429,-0.35507 -0.0426,-0.5252 0.596106,-0.26987 1.021821,-0.88027 1.021821,-1.58988 z M 13.312223,22.6699 c 0,-0.6813 0.553509,-1.23481 1.235075,-1.23481 0.681302,0 1.234811,0.55351 1.234811,1.23481 0,0.6813 -0.553509,1.23507 -1.234811,1.23507 -0.681566,0.014 -1.235075,-0.55377 -1.235075,-1.23507 z m 6.912769,3.27898 c -0.851694,0.85169 -2.469886,0.90858 -2.938198,0.90858 -0.4826,0 -2.100792,-0.0712 -2.938462,-0.90858 -0.12753,-0.12779 -0.12753,-0.3265 0,-0.45429 0.127793,-0.12753 0.326495,-0.12753 0.454289,0 0.539485,0.53949 1.675077,0.7239 2.484173,0.7239 0.809096,0 1.95871,-0.18441 2.483908,-0.7239 0.127794,-0.12753 0.326496,-0.12753 0.45429,0 0.113506,0.12779 0.113506,0.3265 0,0.45429 z M 19.997715,23.919 c -0.681302,0 -1.234811,-0.55351 -1.234811,-1.23481 0,-0.68131 0.553509,-1.23481 1.234811,-1.23481 0.681566,0 1.235075,0.5535 1.235075,1.23481 0,0.66701 -0.553509,1.23481 -1.235075,1.23481 z" />
    <text
       xml:space="preserve"
       id="text913"
       style="font-style:normal;font-weight:normal;font-size:14.1111px;line-height:1.25;font-family:sans-serif;white-space:pre;shape-inside:url(#rect915);fill:#000000;fill-opacity:1;stroke:none;"
       transform="translate(-38.691433,-27.822582)"><tspan
         x="72.429688"
         y="51.906891"><tspan
           style="font-style:normal;font-variant:normal;font-weight:normal;font-stretch:normal;font-size:14.1111px;font-family:'Source Sans Pro';-inkscape-font-specification:'Source Sans Pro'">reddit</tspan><tspan
           style="font-style:normal;font-variant:normal;font-weight:normal;font-stretch:normal;font-size:14.1111px;font-family:'Source Sans Pro';-inkscape-font-specification:'Source Sans Pro';fill:#959595;fill-opacity:1">archiver</tspan></tspan></text>
  </g>
</svg>
